<?xml version="1.0" encoding="UTF-8" standalone="no"?>
<!-- Created with Inkscape (http://www.inkscape.org/) -->

<svg
   width="14.468429mm"
   height="11.082199mm"
   viewBox="0 0 14.468429 11.082199"
   version="1.1"
   id="svg1"
   sodipodi:docname="zoro-logo.svg"
   inkscape:version="1.4.2 (ebf0e940d0, 2025-05-08)"
   xmlns:inkscape="http://www.inkscape.org/namespaces/inkscape"
   xmlns:sodipodi="http://sodipodi.sourceforge.net/DTD/sodipodi-0.dtd"
   xmlns="http://www.w3.org/2000/svg"
   xmlns:svg="http://www.w3.org/2000/svg">
  <sodipodi:namedview
     id="namedview1"
     pagecolor="#ffffff"
     bordercolor="#000000"
     borderopacity="0.25"
     inkscape:showpageshadow="2"
     inkscape:pageopacity="0.0"
     inkscape:pagecheckerboard="0"
     inkscape:deskcolor="#d1d1d1"
     inkscape:document-units="mm"
     inkscape:zoom="16"
     inkscape:cx="40.53125"
     inkscape:cy="22.78125"
     inkscape:window-width="1885"
     inkscape:window-height="1167"
     inkscape:window-x="0"
     inkscape:window-y="0"
     inkscape:window-maximized="1"
     inkscape:current-layer="layer1" />
  <defs
     id="defs1" />
  <g
     inkscape:label="Layer 1"
     inkscape:groupmode="layer"
     id="layer1"
     transform="translate(-18.292437,-87.76855)">
    <path
       fill-rule="evenodd"
       clip-rule="evenodd"
       d="m 22.8945,87.921409 c -0.838835,0.16336 -1.168162,0.618087 -1.280504,1.76873 -0.08752,0.894054 -0.197591,0.992691 -1.466401,1.313154 -0.754454,0.190712 -1.51888,0.493792 -1.698508,0.673391 -0.54488,0.54483 0.380928,1.173453 2.013574,1.366758 l 1.475238,0.174757 0.191902,1.446292 c 0.157109,1.185995 0.421402,1.691746 1.469258,2.811595 1.698783,1.816338 2.45438,1.828033 4.008331,0.06302 0.929799,-1.056296 1.18327,-1.595702 1.340379,-2.853823 0.205582,-1.644702 0.07869,-1.531514 2.194613,-1.96088 0.352981,-0.07157 0.898155,-0.320172 1.211792,-0.552502 0.506968,-0.375762 0.522922,-0.47043 0.142557,-0.85217 -0.235214,-0.236058 -1.069207,-0.534825 -1.853327,-0.663968 -1.423061,-0.234342 -1.425918,-0.236908 -1.511723,-1.411798 -0.06845,-0.932831 -0.216429,-1.212224 -0.71284,-1.345079 -0.689425,-0.185027 -4.5398,-0.169061 -5.524341,0.02252 z m 4.98975,0.262002 c 0.78695,0.157372 0.885031,0.293648 0.96229,1.340234 l 0.08612,1.165191 1.568185,0.298767 c 1.034151,0.1973 1.568212,0.438494 1.568212,0.708475 0,0.485219 -1.094899,0.800814 -3.917368,1.128977 -1.835944,0.213519 -1.913493,0.244898 -0.685456,0.27768 1.137365,0.03051 1.353794,0.11774 1.211792,0.488077 -0.09522,0.248047 -0.173064,0.89236 -0.173064,1.43174 0,0.753242 -0.273156,1.277249 -1.176735,2.257398 -0.647223,0.702178 -1.390544,1.276641 -1.651449,1.276641 -0.26117,0 -1.01219,-0.547661 -1.669415,-1.217348 -0.941494,-0.959061 -1.256268,-1.54178 -1.484948,-2.747168 -0.159676,-0.841613 -0.290248,-1.562047 -0.290248,-1.600809 0,-0.03908 -0.703712,-0.158803 -1.563661,-0.266276 -1.455565,-0.181902 -2.136735,-0.541682 -1.752383,-0.925989 0.08924,-0.08924 0.839986,-0.31504 1.668008,-0.501783 1.47865,-0.333269 1.506034,-0.358087 1.534821,-1.401524 0.03336,-1.21194 0.249767,-1.501883 1.253702,-1.682062 1.139666,-0.204414 3.559545,-0.220665 4.511595,-0.03022 z m -0.329618,0.870112 c -0.104642,0.104343 -0.190182,0.748945 -0.190182,1.432324 0,1.093047 0.09438,1.278652 0.784092,1.541516 0.464476,0.177032 1.307307,0.211534 2.06719,0.08437 l 1.28307,-0.214387 -1.63949,-0.266567 -1.639491,-0.266277 V 90.11379 c 0,-1.16832 -0.214974,-1.510718 -0.665189,-1.060267 z m -0.475324,6.004404 c -0.235214,0.08951 -0.73361,0.39997 -1.107704,0.690192 -0.728213,0.56507 -0.355838,0.720725 0.556286,0.232648 0.334725,-0.179335 0.551418,-0.188172 0.551418,-0.02281 0,0.149966 -0.416851,0.365204 -0.92665,0.478102 -0.77896,0.172773 -0.837697,0.237199 -0.368961,0.40341 0.534617,0.1896 0.536045,0.209841 0.0345,0.490379 -0.364967,0.204126 -0.421984,0.354938 -0.188754,0.499189 0.454501,0.280829 1.096592,-0.302207 1.755828,-1.593956 0.746178,-1.462272 0.719084,-1.566889 -0.305964,-1.177157 z"
       id="zoro-figure"
       fill="#000000"
       style="fill:#000000;fill-opacity:1;stroke-width:0.264583" />
    <path
       fill-rule="evenodd"
       clip-rule="evenodd"
       d="m 22.8945,87.921409 c -0.838835,0.16336 -1.168162,0.618087 -1.280504,1.76873 -0.08752,0.894054 -0.197591,0.992691 -1.466401,1.313154 -0.754454,0.190712 -1.51888,0.493792 -1.698508,0.673391 -0.54488,0.54483 0.380928,1.173453 2.013574,1.366758 l 1.475238,0.174757 0.191902,1.446292 c 0.157109,1.185995 0.421402,1.691746 1.469258,2.811595 1.555559,1.663203 2.320267,1.813233 3.631272,0.471539 0.120707,-0.123532 0.246046,-0.259711 0.377059,-0.408519 0.929799,-1.056296 1.18327,-1.595702 1.340379,-2.853823 0.205582,-1.644702 0.07869,-1.531514 2.194613,-1.96088 0.352981,-0.07157 0.898155,-0.320172 1.211792,-0.552502 0.506968,-0.375762 0.522922,-0.47043 0.142557,-0.85217 -0.235214,-0.236058 -1.069207,-0.534825 -1.853327,-0.663968 -1.423061,-0.234342 -1.425918,-0.236908 -1.511723,-1.411798 -0.06845,-0.932831 -0.216429,-1.212224 -0.71284,-1.345079 -0.689425,-0.185027 -4.5398,-0.169061 -5.524341,0.02252 z m 4.98975,0.262002 c 0.78695,0.157372 0.885031,0.293648 0.96229,1.340234 l 0.08612,1.165191 1.568185,0.298767 c 1.034151,0.1973 1.568212,0.438494 1.568212,0.708475 0,0.485219 -1.094899,0.800814 -3.917368,1.128977 -1.835944,0.213519 -1.913493,0.244898 -0.685456,0.27768 1.137365,0.03051 1.353794,0.11774 1.211792,0.488077 -0.09522,0.248047 -0.173064,0.89236 -0.173064,1.43174 0,0.753242 -0.273156,1.277249 -1.176735,2.257398 -0.647223,0.702178 -1.390544,1.276641 -1.651449,1.276641 -0.26117,0 -1.01219,-0.547661 -1.669415,-1.217348 -0.941494,-0.959061 -1.256268,-1.54178 -1.484948,-2.747168 -0.159676,-0.841613 -0.290248,-1.562047 -0.290248,-1.600809 0,-0.03908 -0.703712,-0.158803 -1.563661,-0.266276 -1.455565,-0.181902 -2.136735,-0.541682 -1.752383,-0.925989 0.08924,-0.08924 0.839986,-0.31504 1.668008,-0.501783 1.47865,-0.333269 1.506034,-0.358087 1.534821,-1.401524 0.03336,-1.21194 0.249767,-1.501883 1.253702,-1.682062 1.139666,-0.204414 3.559545,-0.220665 4.511595,-0.03022 z m -0.329618,0.870112 c -0.104642,0.104343 -0.190182,0.748945 -0.190182,1.432324 0,1.093047 0.09438,1.278652 0.784092,1.541516 0.464476,0.177032 1.307307,0.211534 2.06719,0.08437 l 1.28307,-0.214387 -1.63949,-0.266567 -1.639491,-0.266277 V 90.11379 c 0,-1.16832 -0.214974,-1.510718 -0.665189,-1.060267 z m -0.475324,6.004404 c -0.235214,0.08951 -0.73361,0.39997 -1.107704,0.690192 -0.728213,0.56507 -0.355838,0.720725 0.556286,0.232648 0.334725,-0.179335 0.551418,-0.188172 0.551418,-0.02281 0,0.149966 -0.416851,0.365204 -0.92665,0.478102 -0.77896,0.172773 -0.837697,0.237199 -0.368961,0.40341 0.534617,0.1896 0.536045,0.209841 0.0345,0.490379 -0.364967,0.204126 -0.421984,0.354938 -0.188754,0.499189 0.454501,0.280829 1.096592,-0.302207 1.755828,-1.593956 0.746178,-1.462272 0.719084,-1.566889 -0.305964,-1.177157 z"
       id="path9"
       fill="#000000"
       style="fill:#ffffff;fill-opacity:1;fill-rule:evenodd;stroke-width:0;stroke-dasharray:none"
       sodipodi:nodetypes="ccccccccsccccccccccscccscccscsccscccccsscscccccsccccsccccccc" />
    <path
       style="fill:#000000;fill-opacity:1;fill-rule:nonzero;stroke:#ffffff;stroke-width:0.022794;stroke-opacity:1"
       d="m 25.40854,98.445681 c -0.359997,-0.184578 -0.940657,-0.660265 -1.465848,-1.200848 -0.753821,-0.775916 -1.080148,-1.319599 -1.297118,-2.161095 -0.06715,-0.260447 -0.387065,-1.938933 -0.387065,-2.030822 0,-0.02616 -0.01429,-0.05943 -0.03176,-0.07392 -0.04796,-0.0398 -0.419591,-0.105955 -1.301687,-0.231715 -0.438784,-0.06256 -0.915748,-0.140117 -1.05992,-0.172357 -0.487628,-0.109042 -0.880126,-0.279439 -0.986903,-0.428449 -0.09287,-0.129597 -0.04063,-0.295431 0.118515,-0.37626 0.207216,-0.105242 0.82527,-0.282001 1.677574,-0.479773 1.090927,-0.253143 1.288992,-0.351852 1.391472,-0.693466 0.02137,-0.07123 0.04332,-0.291744 0.05692,-0.571818 0.04132,-0.850784 0.09905,-1.122234 0.29294,-1.37743 0.118605,-0.156104 0.409691,-0.30038 0.779651,-0.386434 0.557019,-0.129564 2.058614,-0.226742 3.052147,-0.197524 1.330521,0.03913 2.019533,0.150645 2.278831,0.36883 0.213964,0.180039 0.26369,0.419137 0.354915,1.706528 0.02132,0.300881 0.04156,0.550257 0.04497,0.554168 0.0034,0.0039 0.373976,0.07739 0.823475,0.163275 1.267892,0.242267 1.608652,0.327419 1.94459,0.485932 0.187676,0.08856 0.337135,0.224372 0.355677,0.323209 0.02981,0.158907 -0.142526,0.35114 -0.427969,0.477377 -0.577632,0.255456 -1.577304,0.444297 -3.687733,0.696623 -1.140793,0.136394 -1.341925,0.17058 -1.292781,0.219724 0.0091,0.0091 0.193439,0.02496 0.409632,0.03522 1.203132,0.05715 1.368051,0.07476 1.539464,0.164379 0.12432,0.065 0.134072,0.118297 0.06608,0.361129 -0.08667,0.309541 -0.127532,0.627407 -0.153189,1.191726 -0.03122,0.686642 -0.07088,0.869296 -0.273281,1.258485 -0.463932,0.892077 -2.098261,2.468331 -2.559274,2.468331 -0.0498,0 -0.150613,-0.03575 -0.262322,-0.09303 z m 0.739876,-0.611613 c 0.269573,-0.12753 0.657936,-0.561256 0.966614,-1.079518 0.200898,-0.337302 0.665989,-1.277736 0.736268,-1.488764 0.07879,-0.236598 0.0792,-0.337768 0.0016,-0.388638 -0.05136,-0.03365 -0.0766,-0.03504 -0.205394,-0.01131 -0.471548,0.08689 -1.063036,0.392388 -1.664485,0.859704 -0.258808,0.201089 -0.396552,0.358793 -0.396552,0.454016 0,0.174663 0.276171,0.132433 0.820583,-0.125476 0.371051,-0.17578 0.493959,-0.217611 0.577663,-0.196603 0.07503,0.01883 0.09743,0.09204 0.05022,0.164092 -0.08999,0.137347 -0.416156,0.281198 -0.925603,0.408231 -0.41334,0.103068 -0.546528,0.145298 -0.596945,0.189276 -0.08436,0.07358 -0.03592,0.112812 0.301243,0.24397 0.150532,0.05856 0.29691,0.126145 0.325286,0.150191 l 0.05159,0.04372 -0.06181,0.05521 c -0.034,0.03037 -0.158547,0.112144 -0.276777,0.181726 -0.340385,0.200327 -0.432016,0.319674 -0.340357,0.443306 0.129165,0.17422 0.389638,0.213836 0.636892,0.09686 z m 3.620711,-5.656395 c 0.15044,-0.01311 0.581247,-0.07512 0.957347,-0.1378 0.702828,-0.117131 0.793912,-0.134294 0.781036,-0.14717 -0.0066,-0.0066 -3.225414,-0.534101 -3.259216,-0.534101 -0.0074,0 -0.01863,-0.423113 -0.02488,-0.940251 -0.01107,-0.915121 -0.02097,-1.052109 -0.09428,-1.304284 -0.08624,-0.296656 -0.288924,-0.341482 -0.533302,-0.117947 -0.156818,0.143442 -0.20802,0.44923 -0.224561,1.341099 -0.02165,1.167583 0.04676,1.366408 0.552617,1.606036 0.464128,0.219859 1.09403,0.299882 1.845236,0.234418 z"
       id="path10" />
  </g>
</svg>
