<svg width="55" height="42" viewBox="0 0 55 42" fill="none" xmlns="http://www.w3.org/2000/svg">
<path fill-rule="evenodd" clip-rule="evenodd" d="M17.3937 0.577734C14.2232 1.19516 12.9785 2.91381 12.5539 7.2627C12.2231 10.6418 11.8071 11.0146 7.0116 12.2258C4.16015 12.9466 1.27098 14.0921 0.59206 14.7709C-1.46732 16.8301 2.0318 19.206 8.2024 19.9366L13.7781 20.5971L14.5034 26.0634C15.0972 30.5459 16.0962 32.4574 20.0565 36.6899C26.4771 43.5548 29.3329 43.599 35.2061 36.9281C38.7203 32.9358 39.6783 30.8971 40.2721 26.142C41.0491 19.9258 40.5695 20.3536 48.5667 18.7308C49.9009 18.4603 51.9613 17.5207 53.1467 16.6426C55.0628 15.2224 55.1231 14.8646 53.6856 13.4218C52.7965 12.5296 49.6444 11.4004 46.6809 10.9123C41.3023 10.0266 41.2916 10.0169 40.9672 5.57637C40.7085 2.05071 40.1492 0.994736 38.2731 0.492609C35.6673 -0.206705 21.1148 -0.146363 17.3937 0.577734ZM36.2525 1.56798C39.2268 2.16277 39.5975 2.67783 39.8895 6.63343L40.215 11.0373L46.142 12.1665C50.0507 12.9122 52.0691 13.8238 52.0691 14.8442C52.0691 16.6781 47.9309 17.8709 37.2633 19.1112C30.3243 19.9182 30.0312 20.0368 34.6726 20.1607C38.9714 20.276 39.7893 20.6057 39.2526 22.0054C38.8927 22.9429 38.5985 25.3781 38.5985 27.4167C38.5985 30.2636 37.5661 32.2441 34.1511 35.9486C31.7048 38.6025 28.8954 40.7737 27.9093 40.7737C26.9222 40.7737 24.0837 38.7038 21.5997 36.1727C18.0413 32.5479 16.8516 30.3455 15.9873 25.7897C15.3838 22.6088 14.8903 19.8859 14.8903 19.7394C14.8903 19.5917 12.2306 19.1392 8.98046 18.733C3.47908 18.0455 0.904577 16.6857 2.35725 15.2332C2.69455 14.8959 5.53199 14.0425 8.66148 13.3367C14.2502 12.0771 14.3536 11.9833 14.4625 8.0396C14.5885 3.45904 15.4065 2.36319 19.2009 1.6822C23.5082 0.909611 32.6542 0.848192 36.2525 1.56798ZM35.0067 4.85659C34.6112 5.25096 34.2879 7.68725 34.2879 10.2701C34.2879 14.4013 34.6446 15.1028 37.2515 16.0963C39.0069 16.7654 42.1925 16.8958 45.0644 16.4152L49.9138 15.6049L43.7173 14.5974L37.5209 13.591V8.8639C37.5209 4.4482 36.7083 3.1541 35.0067 4.85659ZM33.2103 27.5504C32.3212 27.8887 30.4375 29.0621 29.0236 30.159C26.2713 32.2947 27.6787 32.883 31.1261 31.0383C32.3913 30.3605 33.2103 30.3271 33.2103 30.9521C33.2103 31.5189 31.6348 32.3324 29.7079 32.7591C26.7638 33.4121 26.5418 33.6556 28.3134 34.2838C30.334 35.0004 30.3394 35.0769 28.4438 36.1372C27.0645 36.9087 26.8489 37.4787 27.7304 38.0239C29.4482 39.0853 31.8751 36.8817 34.3666 31.9995C37.1868 26.4728 37.0844 26.0774 33.2103 27.5504Z" fill="#FF5500"/>
</svg>
