<?xml version="1.0" encoding="utf-8"?>
<!-- Generator: Adobe Adobe Illustrator 24.2.0, SVG Export Plug-In . SVG Version: 6.00 Build 0)  -->
<svg version="1.1" id="Layer_2" xmlns="http://www.w3.org/2000/svg" xmlns:xlink="http://www.w3.org/1999/xlink" x="0px" y="0px"
	 width="1672px" height="1669px" viewBox="0 0 1672 1669" style="enable-background:new 0 0 1672 1669;" xml:space="preserve">
<style type="text/css">
	.st0{fill:white;}
	.st1{fill:black;}
	.st2{display:none;}
	.st3{display:inline;fill:#FFFFFF;}
	.st4{fill:black;}
</style>
<g id="Layer_4">
	<g>
		<path class="st0" d="M835.15,1630.49c-107.35,0-211.52-21.03-309.6-62.52c-94.71-40.06-179.77-97.4-252.8-170.43
			c-73.03-73.03-130.37-158.09-170.43-252.8c-41.48-98.08-62.52-202.24-62.52-309.6s21.03-211.52,62.52-309.6
			c40.06-94.71,97.4-179.77,170.43-252.8c73.03-73.03,158.09-130.37,252.8-170.43c98.08-41.48,202.24-62.52,309.6-62.52
			s211.52,21.03,309.6,62.52c94.71,40.06,179.77,97.4,252.8,170.43s130.37,158.09,170.43,252.8
			c41.48,98.08,62.52,202.24,62.52,309.6s-21.03,211.52-62.52,309.6c-40.06,94.71-97.4,179.77-170.43,252.8
			s-158.08,130.37-252.8,170.43C1046.67,1609.46,942.5,1630.49,835.15,1630.49z"/>
		<path class="st1" d="M835.15,78.29c418,0,756.85,338.85,756.85,756.85s-338.85,756.85-756.85,756.85S78.3,1253.14,78.3,835.14
			S417.15,78.29,835.15,78.29 M835.15,1.29c-56.53,0-113.04,5.7-167.97,16.94c-53.57,10.96-106.27,27.32-156.63,48.62
			c-49.43,20.91-97.09,46.78-141.67,76.89c-44.14,29.82-85.64,64.06-123.35,101.78c-37.71,37.71-71.96,79.22-101.77,123.35
			c-30.12,44.58-55.99,92.25-76.89,141.67C45.56,560.9,29.2,613.6,18.24,667.17C7,722.1,1.3,778.61,1.3,835.14
			S7,948.18,18.24,1003.11c10.96,53.57,27.32,106.27,48.62,156.63c20.91,49.43,46.78,97.09,76.89,141.67
			c29.82,44.14,64.06,85.64,101.77,123.35c37.71,37.71,79.22,71.96,123.35,101.77c44.58,30.12,92.25,55.99,141.67,76.89
			c50.36,21.3,103.05,37.66,156.63,48.62c54.93,11.24,111.44,16.94,167.97,16.94s113.04-5.7,167.97-16.94
			c53.57-10.96,106.27-27.32,156.63-48.62c49.43-20.91,97.09-46.78,141.67-76.89c44.14-29.82,85.64-64.06,123.35-101.77
			c37.71-37.71,71.96-79.22,101.78-123.35c30.12-44.58,55.99-92.25,76.89-141.67c21.3-50.36,37.66-103.05,48.62-156.63
			c11.24-54.93,16.94-111.44,16.94-167.97s-5.7-113.04-16.94-167.97c-10.96-53.57-27.32-106.27-48.62-156.63
			c-20.91-49.43-46.78-97.09-76.89-141.67c-29.82-44.14-64.06-85.64-101.78-123.35s-79.22-71.96-123.35-101.78
			c-44.58-30.12-92.25-55.99-141.67-76.89c-50.36-21.3-103.05-37.66-156.63-48.62C948.19,6.99,891.67,1.29,835.15,1.29L835.15,1.29z
			"/>
	</g>
</g>
<g id="Layer_3" class="st2">
	<path class="st3" d="M501.2,802.56c1.99,0.74,492.58-63.23,492.58-63.23l-5.42-254.04l126.59-25.62l13.43,272.33l354.7,37.94
		l-304.53,84.55l-30.45,352.55l-285.71,263L501.2,802.56z"/>
</g>
<g>
	<path class="st4" d="M614.7,825.2c123.65,11.26,239.59,18.63,430.9-1.41c56.39-5.91,488.65-44.07,492.93-123.17
		c2.65-48.94-168.83-68.73-255.81-81.2c-6.23-0.89-104.84-12.82-104.84-12.82s-0.62-14.91-0.88-21.2l-6.06-150
		c0,0-0.85-33.48-3.45-58.78c-1.72-16.77-25.8-20.04-37.75-24.24c-6.87-2.42-70.7-17.31-175.86-23.44
		c-81.27-3.97-109.17-6.27-200.74,0.54c-91.56,6.8-166.83,24.12-192.83,30.56c-22.57,5.59-36.6,9.46-49.57,15.61
		c-15.66,7.43-25.38,23.5-25.1,40.83l3.13,193.38c0.06,3.78-0.14,15.06-0.23,19.82c-0.02,1.26-0.92,2.32-2.15,2.55
		c-4.17,0.77-13.58,2.49-19.65,3.31C389.51,646.07,138.86,684.23,131.87,737c-7.12,53.73,273.07,82.24,351.08,89.13
		c3.98,0.35,10.82,1.38,14.8,2c1.92,0.3,3.47,1.67,4.03,3.53c1.28,4.27,3.51,11.97,4.13,16.03l45.82,300.23c0,0,0.58,2.59,0.94,3.24
		c0.36,0.65,0.97,1.88,1.78,2.92c0.77,0.99,206.13,216.61,207.12,217.6c9.1,9.1,2.41,1.86,10.29,10.82c0,0,11.2,11.07,25.18,16.71
		c9.42,3.8,68.46,13.97,110.77-6.28c10.26-4.91,25.74-15.29,26.92-16.08c0.52-0.35,1.41-1.02,2.24-1.67
		c1.32-1.03,2.53-2.19,3.62-3.46l193.59-224.97c2.36-2.74,3.27-6.15,3.58-9.76c2.35-26.66,11.7-142.99,21.57-258.49
		c0.47-5.46,1.3-19.62,1.72-26.88c0.13-2.26-1.83-4.09-4.07-3.77c-7.46,1.06-4.53,7.25-259.97,7.25
		C714.92,855.09,603.81,824.21,614.7,825.2z M950.75,702.94c73.88-8.51,74.93-14.66,77.07-15.09c-0.29-9.63-10.6-258.08-10.6-258.08
		s29.38-5.45,43.09-8.51c12.6-2.81,46.1-10.6,46.1-10.6s9.8,199.62,13.89,259.31c92.18,18.47,342.38,36.44,342.38,36.44
		c0.75,0.09-12.38,7.09-13.11,7.36c-11.91,4.38-34.96,12.64-44.14,15.15c-29.04,7.96-36.02,10.29-48.1,12.81
		c-22.88,4.78-24.62,5.1-46.03,9.58c-23.62,4.94-77.58,15.03-112.2,18.16c-1.72,0.16-125.75-49.44-135.14-52.83
		c-8.09-2.91-23.94-6.47-23.94-6.47s-37.27,4.86-52.98,6.8c-33.23,4.1-66.74,4.61-100.19,5.39c-29.24,0.68-89.35-1.59-89.35-1.59
		S804.81,719.75,950.75,702.94z M819.24,1137.01c0.43-1.96,2.28-3.26,4.27-3.02c7.87,0.95,34.79,6.83,34.79,6.83
		c2.62,0.46,5.29-0.45,6.94-2.53c5.23-6.58,67.49-57.61,86.28-72.97c3.43-2.81,7.38-4.88,11.63-6.15
		c15.87-4.74,46.29-17.82,71.28-29.24c26.52-12.12,56.81-28.04,67.05-33.49c1.3-0.69,2.78,0.55,2.31,1.95
		c-22.36,66.98-96.2,225.77-113.78,261.9c-2.52,5.18-5.56,10.09-9.11,14.63c-11.68,14.95-36.58,49.26-71.55,58.25
		c-18.73,4.82-42.65,9.28-60.96,2.97c-8.57-2.95-17.1-8.45-20.28-17.99c-3.58-10.72,2.02-22.57,9.58-25.63
		c27.32-11.06,76.71-29.44,86.2-40.96c1.58-1.92-0.51-4.87-2.63-5.79c-7.09-3.06-44.2-3.61-62.74-2.22
		c-11.31,0.84-31.58,4.75-35.34-8.72c-4.06-14.54,1.08-22.54,12.41-24.78c19.54-3.86,45.85-8.95,71.36-18.07
		c39.61-14.16,70.84-31.62,83.6-35.34c7.38,0.72,8.04,5.25,10.94,6.15c0.42,0.13,7.78-8.43,8.28-11.27
		c1.15-6.65-3.64-18.04-5.61-24.98c-1.51-5.35-5.58-14.87-11.34-14.93c-2.69-0.03-13.64,1.46-20.04,3.27
		c-3.14,0.88-5.64,5.08-3.86,7.82c0.4,0.62,1.73,3.15,3.39,6.05c1.31,2.3,0.94,5.62-1.35,6.93c-14.27,8.15-13.81,8.89-53.19,24.32
		c-42.87,16.8-75.43,18.96-96.31,19.4c-3.05,0.06-5.58-2.33-5.65-5.38C815.54,1162.28,817.69,1143.98,819.24,1137.01z"/>
</g>
</svg>
