<svg width="57" height="57" viewBox="0 0 57 57" fill="none" xmlns="http://www.w3.org/2000/svg">
<path fill-rule="evenodd" clip-rule="evenodd" d="M0 28.5V57H28.5H57V28.5V0H28.5H0V28.5ZM32.7038 8.83571C36.5827 9.08509 39.4359 9.62516 40.3634 10.2857C41.1221 10.8257 41.1945 11.16 41.373 14.9438L41.5387 18.4538L41.9663 18.4927C44.0921 18.6865 49.1012 19.5221 50.445 19.9072C51.2553 20.1394 52.4803 20.6833 52.8849 20.9904C53.3484 21.3425 53.865 22.2715 53.865 22.7533C53.865 24.9148 51.2014 26.2181 44.4695 27.3506C43.0413 27.591 41.7213 27.7875 41.536 27.7875C41.3508 27.7875 41.1568 27.8563 41.1048 27.9403C41.053 28.0243 40.8244 30.3489 40.597 33.1059C40.3346 36.2858 40.1105 38.2751 39.9841 38.5462C39.8743 38.7814 38.6488 40.2883 37.2605 41.895C35.8722 43.5017 34.3294 45.2983 33.8319 45.8874C32.3126 47.6871 31.1172 48.235 28.7137 48.2334C26.377 48.2318 26.5077 48.3232 21.8341 43.4287C19.6614 41.1533 17.8008 39.1734 17.6996 39.0288C17.5983 38.8841 17.1633 36.4753 16.7329 33.6756C16.3024 30.8759 15.9328 28.5678 15.9113 28.5463C15.8899 28.5249 15.2348 28.4393 14.4556 28.3559C8.71103 27.7419 5.07927 26.8449 3.86959 25.7412C2.72375 24.6955 2.92937 23.1778 4.3481 22.2099C5.77823 21.2342 9.52356 20.2294 14.6504 19.446L15.2646 19.3521L15.2334 15.9104C15.2038 12.6363 15.2171 12.4397 15.5086 11.8714C16.093 10.7318 17.0712 10.2576 20.1348 9.62887C24.2487 8.7847 28.1138 8.54074 32.7038 8.83571ZM25.365 10.2071C21.5192 10.6824 18.8242 11.2076 17.6444 11.7116C16.5105 12.196 16.478 12.3533 16.6003 16.7559L16.7043 20.5012L16.2253 20.5808C10.1832 21.5868 8.29108 21.9906 6.555 22.6448C5.10221 23.1924 4.29751 23.8891 4.50214 24.4225C4.72644 25.0066 6.54688 25.7043 9.15121 26.2042C10.6492 26.4917 14.2152 26.9832 16.0669 27.1572C16.635 27.2107 17.1 27.2694 17.1 27.2878C17.1 27.3061 17.166 27.6665 17.2465 28.0887C17.3271 28.5108 17.6154 30.3311 17.8872 32.1338C18.8798 38.72 18.7718 38.2055 19.2784 38.7566C19.5302 39.0305 20.3503 39.8967 21.1007 40.6816C21.8511 41.4665 23.3492 43.0386 24.4296 44.175C26.9326 46.8077 27.1266 46.9214 28.9987 46.8537C31.2353 46.7729 31.2766 46.7414 35.3721 41.9856L38.8045 37.9998L39.2207 33.0232C39.4496 30.2862 39.6159 28.0303 39.5903 28.0102C39.5647 27.9901 37.6521 28.0169 35.34 28.0696C29.3349 28.2066 25.0204 27.993 22.3725 27.4275L21.4462 27.2299L22.23 27.2946C24.5429 27.4857 30.3531 27.5291 32.4983 27.3714C41.7015 26.6948 49.4857 25.302 51.6171 23.9503C52.6245 23.3114 52.7267 22.5539 51.8823 21.9848C50.801 21.2562 48.4051 20.7229 43.0113 20.0108C41.4997 19.8112 40.2494 19.6345 40.233 19.618C40.1965 19.5815 39.9 13.1163 39.9 12.3575C39.9 11.2897 39.0866 10.9333 35.5537 10.4532C34.0471 10.2485 26.5044 10.0663 25.365 10.2071ZM38.0417 18.8771C38.1264 20.4423 38.2427 21.7694 38.2999 21.8262C38.4462 21.9715 42.359 22.4493 46.3108 22.8044C48.1516 22.9699 49.6772 23.1248 49.701 23.1486C49.9159 23.3634 45.6621 24.4792 42.8891 24.9354L40.9688 25.2513L38.5462 24.2844C35.8157 23.1944 35.751 23.1855 32.7317 23.4782C30.6656 23.6784 27.3916 23.7019 28.215 23.5105C28.4893 23.4467 29.7077 23.2862 30.9225 23.1538C33.0401 22.9231 34.8525 22.6226 34.9967 22.4782C35.0343 22.4408 34.9894 20.516 34.8971 18.2011C34.8046 15.8862 34.7659 13.8965 34.8106 13.7796C34.8598 13.6518 35.1756 13.5281 35.6031 13.4692C35.9939 13.4155 36.6238 13.2921 37.0025 13.1952L37.6912 13.0188L37.7893 14.525C37.8432 15.3535 37.9567 17.3119 38.0417 18.8771ZM37.5495 33.3094C37.4939 33.4466 37.2954 33.959 37.1084 34.4484C36.6868 35.5512 34.5124 40.4268 33.91 41.6197C32.9506 43.5205 31.474 44.5985 29.8261 44.6011C29.0991 44.6022 28.8734 44.5424 28.5465 44.2611C28.2027 43.9654 28.1683 43.8685 28.2891 43.5372C28.4018 43.2285 28.6874 43.0484 29.7704 42.6032C31.1257 42.0461 31.6386 41.7083 31.4361 41.5065C31.3752 41.4458 30.661 41.3962 29.8489 41.3962C28.2703 41.3962 28.0162 41.3005 28.096 40.7358C28.1383 40.4365 28.3035 40.3583 29.5688 40.0374C30.3525 39.8386 31.5388 39.427 32.205 39.1229C32.8712 38.8187 33.6239 38.5693 33.8777 38.5686C34.4484 38.5672 34.557 38.2986 34.2939 37.5388C34.1195 37.0349 34.0515 36.9787 33.6156 36.9787C33.1958 36.9787 33.1308 37.0258 33.1284 37.332C33.1264 37.5935 32.9801 37.7671 32.5657 37.9993C31.2349 38.7459 28.1145 39.459 27.875 39.0714C27.8236 38.988 27.8243 38.6517 27.8767 38.324L27.9719 37.7282L28.6991 37.81L29.4263 37.8916L30.9225 36.6216C32.215 35.5245 32.6322 35.2622 33.9862 34.6958C34.8484 34.3351 35.9706 33.8225 36.48 33.5569C37.5489 32.9994 37.6881 32.9672 37.5495 33.3094Z" fill="#FF5500"/>
</svg>

