<?xml version="1.0" encoding="utf-8"?>
<!-- Generator: Adobe Adobe Illustrator 24.2.0, SVG Export Plug-In . SVG Version: 6.00 Build 0)  -->
<svg version="1.1" id="Layer_2" xmlns="http://www.w3.org/2000/svg" xmlns:xlink="http://www.w3.org/1999/xlink" x="0px" y="0px"
	 width="1553px" height="1226px" viewBox="0 0 1553 1226" style="enable-background:new 0 0 1553 1226;" xml:space="preserve">
<style type="text/css">
	.st0{fill:#FFFFFF;}
	.st1{fill:#030303;}
	.st2{display:none;fill:#030303;}
</style>
<g id="Layer_3">
</g>
<g>
	<g>
		<path class="st1" d="M785.57,1189c-23.33,0-49.18-3.6-61.45-8.55c-19.68-7.94-34.29-21.8-37.02-24.49l-0.89-0.88l-0.83-0.94
			c-1.78-2.02-2.86-3.27-3.55-4.07c-1.07-1.02-2.58-2.49-5.17-5.07c-1.37-1.37-103.23-108.35-104.26-109.43
			C468.16,926.08,468.13,926.04,466.53,923.98c-2.47-3.19-4.08-6.18-4.77-7.46l-0.05-0.09c-2-3.62-3.37-7.46-4.57-12.79l-0.27-1.21
			l-44.76-293.32c-41.12-3.76-112.65-11.23-181.14-22.9c-42.44-7.23-77.84-15.12-105.21-23.44c-39.74-12.08-63.48-24.99-76.99-41.84
			c-6.82-8.52-14.45-22.51-12.03-40.8c5.51-41.58,54.31-69.65,168.43-96.86c68.61-16.36,144-28.1,188-34.26l-2.98-184.08
			c-0.51-31.5,17.41-60.53,45.66-73.94c16.66-7.91,33.86-12.46,56.35-18.03c29.02-7.19,106.49-24.66,198.82-31.52
			C732.84,38.33,762.76,37,791.06,37c27.8,0,53.04,1.26,87.98,3c5.45,0.27,11.15,0.56,17.13,0.85l0.34,0.02
			c103.75,6.05,172.43,20.75,185.71,25.42c1.14,0.4,3.31,1.02,5.41,1.62c7.44,2.12,17.63,5.03,27.25,10.52
			c22.74,12.98,27.9,32.12,28.96,42.38c2.62,25.45,3.53,57.76,3.62,61.28l5.67,140.33c30.27,3.67,70.9,8.62,75.24,9.24
			c6.67,0.96,13.83,1.95,21.38,3.01c47.53,6.63,106.67,14.87,156.2,27.71c29.37,7.61,51.68,15.92,68.23,25.4
			c35.46,20.33,41.78,45.29,40.84,62.66c-2.39,44.29-50.85,67.42-87.09,80.97c-36.14,13.51-86.35,26.27-149.23,37.92
			c-47.55,8.81-97.23,16.06-141.95,21.81c0.72,3.4,0.99,6.91,0.79,10.43c-0.56,9.68-1.33,22.38-1.79,27.87
			c-5.95,69.66-11.68,139.24-15.87,190.04c-2.77,33.6-4.77,57.87-5.71,68.54c-1.04,11.81-5.14,21.93-12.17,30.1l-193.58,224.96
			c-2.63,3.06-5.58,5.87-8.76,8.36c-1.86,1.45-3.19,2.43-4.44,3.26c-5.72,3.82-20.16,13.24-31.33,18.58
			C842.07,1183.71,815.71,1189,785.57,1189z"/>
		<path class="st0" d="M791.06,73c31.17,0,59.49,1.66,103.35,3.8c105.17,6.13,168.99,21.02,175.86,23.44
			c11.96,4.2,36.03,7.47,37.75,24.24c2.6,25.3,3.45,58.78,3.45,58.78l6.06,150c0.25,6.29,0.88,21.2,0.88,21.2
			s98.61,11.93,104.84,12.82c86.98,12.47,258.45,32.26,255.81,81.2c-4.28,79.1-436.53,117.26-492.93,123.17
			c-86.84,9.1-158.15,12.54-221.7,12.54c-76.45,0-141.68-4.99-209.2-11.14c-0.17-0.02-0.31-0.02-0.42-0.02
			c-6.93,0,103.52,29.92,282.74,29.92c255.44,0,252.51-6.19,259.97-7.25c0.17-0.02,0.34-0.04,0.51-0.04c2.02,0,3.69,1.72,3.57,3.81
			c-0.42,7.27-1.26,21.42-1.72,26.88c-9.87,115.5-19.22,231.83-21.57,258.49c-0.32,3.61-1.22,7.02-3.59,9.76l-193.59,224.97
			c-1.09,1.27-2.3,2.43-3.62,3.46c-0.83,0.65-1.72,1.32-2.24,1.67c-1.19,0.79-16.66,11.17-26.92,16.08
			c-19.54,9.35-42.65,12.21-62.79,12.21c-23.47,0-42.92-3.89-47.98-5.93c-13.98-5.64-25.18-16.71-25.18-16.71
			c-7.88-8.95-1.19-1.72-10.29-10.82c-0.99-0.99-206.35-216.61-207.12-217.6c-0.81-1.04-1.42-2.27-1.78-2.92
			c-0.36-0.65-0.94-3.24-0.94-3.24l-45.82-300.23c-0.62-4.06-2.84-11.77-4.13-16.03c-0.56-1.86-2.12-3.23-4.03-3.53
			c-3.97-0.62-10.82-1.65-14.8-2c-78.01-6.89-358.2-35.4-351.08-89.13c6.99-52.77,257.64-90.93,334.85-101.46
			c6.07-0.83,15.48-2.54,19.65-3.31c1.24-0.23,2.13-1.29,2.15-2.55c0.09-4.76,0.29-16.04,0.23-19.82l-3.13-193.38
			c-0.28-17.33,9.44-33.4,25.1-40.83c12.96-6.15,27-10.02,49.57-15.61c26-6.44,101.27-23.75,192.83-30.56
			C735.83,74.2,764.48,73,791.06,73 M814.6,470.35c4.65,0,8.99-0.04,12.79-0.13c33.45-0.78,66.96-1.29,100.19-5.39
			c15.7-1.94,52.98-6.8,52.98-6.8s15.85,3.56,23.94,6.47c9.37,3.38,133.04,52.83,135.13,52.83c0,0,0.01,0,0.01,0
			c34.62-3.13,88.58-13.22,112.2-18.16c21.41-4.48,23.16-4.79,46.04-9.58c12.07-2.52,19.06-4.86,48.1-12.81
			c9.18-2.51,32.24-10.77,44.14-15.15c0.73-0.27,13.86-7.27,13.11-7.36c0,0-250.19-17.97-342.38-36.44
			c-4.09-59.69-13.89-259.31-13.89-259.31s-33.5,7.79-46.1,10.6c-13.71,3.06-43.09,8.51-43.09,8.51s10.31,248.45,10.6,258.08
			c-2.14,0.43-3.19,6.59-77.07,15.1c-145.94,16.81-153.26,17.83-153.26,17.83S783.52,470.35,814.6,470.35 M800.19,888.79
			c-0.44,0-0.89-0.04-1.34-0.12c0,0-26.91-5.88-34.79-6.83c-0.16-0.02-0.32-0.03-0.47-0.03c-1.81,0-3.4,1.25-3.8,3.05
			c-1.55,6.97-3.7,25.27-3.43,37.02c0.07,3.01,2.53,5.38,5.53,5.38c0.04,0,0.08,0,0.12,0c20.88-0.44,53.44-2.61,96.31-19.4
			c39.38-15.43,38.92-16.18,53.19-24.32c2.3-1.31,2.66-4.64,1.35-6.93c-1.66-2.9-2.98-5.43-3.39-6.05
			c-1.78-2.74,0.72-6.94,3.86-7.82c6.35-1.78,17.15-3.27,19.97-3.27c0.03,0,0.05,0,0.08,0c5.77,0.06,9.83,9.59,11.34,14.93
			c1.97,6.94,6.76,18.33,5.61,24.98c-0.49,2.82-7.74,11.27-8.27,11.27c0,0-0.01,0-0.01,0c-2.89-0.9-3.55-5.43-10.94-6.15
			c-12.76,3.72-43.99,21.18-83.6,35.34c-25.51,9.12-51.82,14.21-71.36,18.07c-11.33,2.24-16.46,10.23-12.41,24.78
			c2.25,8.05,10.39,9.89,18.99,9.89c5.79,0,11.79-0.84,16.34-1.18c6.32-0.47,14.79-0.72,23.5-0.72c16.85,0,34.57,0.93,39.24,2.94
			c2.12,0.91,4.21,3.87,2.63,5.79c-9.49,11.51-58.88,29.9-86.2,40.96c-7.56,3.06-13.16,14.91-9.58,25.63
			c3.18,9.54,11.72,15.04,20.28,17.99c6.47,2.23,13.64,3.11,21.03,3.11c13.53,0,27.82-2.97,39.93-6.08
			c34.97-9,59.86-43.3,71.55-58.25c3.55-4.54,6.59-9.44,9.11-14.63c17.58-36.13,91.42-194.92,113.78-261.9
			c0.37-1.12-0.5-2.15-1.54-2.15c-0.25,0-0.52,0.06-0.77,0.2c-10.25,5.45-40.53,21.37-67.05,33.49c-25,11.42-55.41,24.5-71.28,29.24
			c-4.25,1.27-8.19,3.34-11.63,6.15c-18.8,15.35-81.05,66.39-86.28,72.97C804.42,887.87,802.35,888.79,800.19,888.79 M791.06,1
			C791.06,1,791.06,1,791.06,1c-29.23,0-59.95,1.36-102.72,4.53C593.26,12.6,513.44,30.6,483.53,38.01
			c-23.75,5.88-43.48,11.13-63.13,20.46c-40.96,19.45-66.95,61.46-66.21,107.04l2.47,152.46c-44.62,6.8-104.31,17.04-159.84,30.29
			c-45.6,10.87-81.15,21.98-108.68,33.94c-19.42,8.44-34.91,17.36-47.36,27.28C12.13,432.3,3.36,457.92,1.05,475.4
			c-3.19,24.1,3.78,48.26,19.62,68.04c18.32,22.87,47.5,39.45,94.61,53.77c28.83,8.76,65.71,17,109.64,24.48
			c55.89,9.52,113.65,16.28,155.83,20.55l40.35,264.38l0.37,2.45l0.54,2.42c1.91,8.54,4.49,15.6,8.08,22.15
			c1.59,2.95,4.15,7.43,7.97,12.37c2.5,3.23,2.5,3.23,37.3,39.81c19.38,20.38,45.16,47.46,70.95,74.55
			c103.17,108.36,104.45,109.64,104.87,110.06c1.96,1.96,3.39,3.37,4.51,4.45c0.67,0.77,1.54,1.76,2.65,3.03l1.66,1.88l1.78,1.76
			c5.04,4.98,23.45,22.02,48.85,32.27c16.81,6.78,46.22,11.17,74.93,11.17c35.57,0,67.15-6.48,93.86-19.26
			c12.74-6.1,27.84-15.81,35.71-21.07l0.07-0.05c2.01-1.34,4.04-2.82,6.6-4.82c5.05-3.94,9.72-8.4,13.9-13.25l193.6-224.98
			c8.26-9.59,18.59-26.15,20.73-50.4c0.95-10.79,2.96-35.13,5.73-68.83c4.18-50.76,9.91-120.29,15.85-189.86
			c0.19-2.2,0.42-5.47,0.71-9.78c36.66-5.06,75.42-11.04,112.94-18c65.85-12.2,116.64-25.16,155.27-39.6
			c26.47-9.89,47.2-20.53,63.38-32.52c36.77-27.24,45.88-58.66,47.04-80.23c1.26-23.35-6.13-45.74-21.37-64.74
			c-9.58-11.94-21.85-22.12-37.52-31.1c-19.36-11.1-44.58-20.59-77.1-29.02c-51.53-13.35-114.38-22.11-160.26-28.51
			c-7.54-1.05-14.66-2.04-21.23-2.99c-3.23-0.46-23.02-2.9-45.61-5.65l-4.43-109.49c-0.13-4.84-1.1-37.57-3.79-63.75
			c-1.74-16.91-8.26-32.89-18.87-46.21c-7.5-9.42-16.94-17.41-28.05-23.76c-13.4-7.65-26.53-11.4-35.22-13.87
			c-1.23-0.35-2.9-0.83-3.56-1.04c-17.48-6.06-90.27-21.19-195.34-27.32l-0.34-0.02l-0.34-0.02c-5.97-0.29-11.66-0.58-17.1-0.85
			C845.38,2.28,819.76,1,791.06,1L791.06,1L791.06,1z"/>
	</g>
</g>
<path class="st2" d="M555.25,573.06c123.65,11.26,239.59,18.63,430.9-1.41c56.39-5.91,488.65-44.07,492.93-123.17
	c2.65-48.94-168.83-68.73-255.81-81.2c-6.23-0.89-104.84-12.82-104.84-12.82s-0.62-14.91-0.88-21.2l-6.06-150
	c0,0-0.85-33.48-3.45-58.78c-1.72-16.77-25.8-20.04-37.75-24.24c-6.87-2.42-70.7-17.31-175.86-23.44
	c-81.27-3.97-109.17-6.27-200.74,0.54c-91.56,6.8-166.83,24.12-192.83,30.56c-22.57,5.59-36.6,9.46-49.57,15.61
	c-15.66,7.43-25.38,23.5-25.1,40.83l3.13,193.38c0.06,3.78-0.14,15.06-0.23,19.82c-0.02,1.26-0.92,2.32-2.15,2.55
	c-4.17,0.77-13.58,2.49-19.65,3.31c-77.21,10.52-327.86,48.69-334.85,101.46c-7.12,53.73,273.07,82.24,351.08,89.13
	c3.98,0.35,10.82,1.38,14.8,2c1.92,0.3,3.47,1.67,4.03,3.53c1.28,4.27,3.51,11.97,4.13,16.03l45.82,300.23c0,0,0.58,2.59,0.94,3.24
	c0.36,0.65,0.97,1.88,1.78,2.92c0.77,0.99,206.13,216.61,207.12,217.6c9.1,9.1,2.41,1.86,10.29,10.82c0,0,11.2,11.07,25.18,16.71
	c9.42,3.8,68.46,13.97,110.77-6.28c10.26-4.91,25.74-15.29,26.92-16.08c0.52-0.35,1.41-1.02,2.24-1.67
	c1.32-1.03,2.53-2.19,3.62-3.46l193.59-224.97c2.36-2.74,3.27-6.15,3.58-9.76c2.35-26.66,11.7-142.99,21.57-258.49
	c0.47-5.46,1.3-19.62,1.72-26.88c0.13-2.26-1.83-4.09-4.07-3.77c-7.46,1.06-4.53,7.25-259.97,7.25
	C655.46,602.95,544.36,572.06,555.25,573.06z M891.3,450.8c73.88-8.51,74.93-14.66,77.07-15.09c-0.29-9.63-10.6-258.08-10.6-258.08
	s29.38-5.45,43.09-8.51c12.6-2.81,46.1-10.6,46.1-10.6s9.8,199.62,13.89,259.31c92.18,18.47,342.38,36.44,342.38,36.44
	c0.75,0.09-12.38,7.09-13.11,7.36c-11.91,4.38-34.96,12.64-44.14,15.15c-29.04,7.96-36.02,10.29-48.1,12.81
	c-22.88,4.78-24.62,5.1-46.03,9.58c-23.62,4.94-77.58,15.03-112.2,18.16c-1.72,0.16-125.75-49.44-135.14-52.83
	c-8.09-2.91-23.94-6.47-23.94-6.47s-37.27,4.86-52.98,6.8c-33.23,4.1-66.74,4.61-100.19,5.39c-29.24,0.68-89.35-1.59-89.35-1.59
	S745.35,467.61,891.3,450.8z M759.78,884.86c0.43-1.96,2.28-3.26,4.27-3.02c7.87,0.95,34.79,6.83,34.79,6.83
	c2.62,0.46,5.29-0.45,6.94-2.53c5.23-6.58,67.49-57.61,86.28-72.97c3.43-2.81,7.38-4.88,11.63-6.15
	c15.87-4.74,46.29-17.82,71.28-29.24c26.52-12.12,56.81-28.04,67.05-33.49c1.3-0.69,2.77,0.55,2.31,1.95
	c-22.36,66.98-96.2,225.77-113.78,261.9c-2.52,5.18-5.56,10.09-9.11,14.63c-11.68,14.95-36.58,49.26-71.55,58.25
	c-18.73,4.82-42.65,9.28-60.96,2.97c-8.57-2.95-17.1-8.45-20.28-17.99c-3.58-10.72,2.02-22.57,9.58-25.63
	c27.32-11.06,76.71-29.44,86.2-40.96c1.58-1.92-0.51-4.87-2.63-5.79c-7.09-3.06-44.2-3.61-62.74-2.22
	c-11.31,0.85-31.58,4.75-35.34-8.72c-4.06-14.54,1.08-22.54,12.41-24.78c19.54-3.86,45.85-8.95,71.36-18.07
	c39.61-14.16,70.84-31.62,83.6-35.34c7.38,0.72,8.04,5.25,10.94,6.15c0.42,0.13,7.78-8.43,8.28-11.27
	c1.15-6.65-3.64-18.04-5.61-24.98c-1.51-5.35-5.58-14.87-11.34-14.93c-2.69-0.03-13.64,1.46-20.04,3.27
	c-3.14,0.88-5.64,5.08-3.86,7.82c0.4,0.62,1.73,3.15,3.39,6.05c1.31,2.3,0.94,5.62-1.35,6.93c-14.27,8.15-13.81,8.89-53.19,24.32
	c-42.87,16.8-75.43,18.96-96.31,19.4c-3.05,0.06-5.58-2.33-5.65-5.38C756.09,910.14,758.24,891.84,759.78,884.86z"/>
</svg>
