<?xml version="1.0" encoding="utf-8"?>
<!-- Generator: Adobe Adobe Illustrator 24.2.0, SVG Export Plug-In . SVG Version: 6.00 Build 0)  -->
<svg version="1.1" id="Layer_1" xmlns="http://www.w3.org/2000/svg" xmlns:xlink="http://www.w3.org/1999/xlink" x="0px" y="0px"
	 width="1920px" height="1474px" viewBox="0 0 1920 1474" style="enable-background:new 0 0 1920 1474;" xml:space="preserve">
<style type="text/css">
	.st0{fill:#030303;}
</style>
<g>
	<path class="st0" d="M659.12,682.49c168.76,15.37,326.99,25.43,588.1-1.92c76.96-8.07,666.91-60.15,672.76-168.1
		c3.62-66.79-230.42-93.8-349.13-110.82c-8.5-1.21-143.09-17.5-143.09-17.5s-0.85-20.35-1.2-28.93l-8.27-204.72
		c0,0-1.16-45.69-4.71-80.22c-2.35-22.89-35.21-27.35-51.52-33.08c-9.38-3.3-96.49-23.62-240.02-31.99
		c-110.92-5.42-149-8.56-273.97,0.74C723.1,15.2,620.37,38.84,584.88,47.63c-30.8,7.63-49.95,12.91-67.65,21.3
		c-21.37,10.14-34.64,32.07-34.26,55.73l4.27,263.93c0.08,5.16-0.19,20.55-0.31,27.05c-0.03,1.72-1.26,3.17-2.93,3.48
		c-5.69,1.05-18.53,3.4-26.82,4.52C351.8,437.99,9.71,490.09,0.17,562.11c-9.72,73.33,372.69,112.24,479.16,121.65
		c5.43,0.48,14.77,1.88,20.2,2.73c2.62,0.41,4.74,2.28,5.5,4.82c1.75,5.83,4.79,16.34,5.64,21.88l62.54,409.76
		c0,0,0.79,3.53,1.28,4.42c0.49,0.89,1.32,2.57,2.43,3.99c1.05,1.35,281.33,295.63,282.68,296.98c12.42,12.42,3.29,2.54,14.04,14.77
		c0,0,15.29,15.11,34.37,22.81c12.86,5.19,93.43,19.07,151.18-8.57c14-6.7,35.13-20.87,36.74-21.95c0.71-0.48,1.92-1.39,3.06-2.28
		c1.8-1.41,3.45-2.99,4.94-4.72l264.21-307.04c3.22-3.74,4.46-8.39,4.89-13.32c3.21-36.39,15.97-195.15,29.44-352.79
		c0.64-7.45,1.77-26.78,2.35-36.69c0.18-3.08-2.5-5.58-5.55-5.15c-10.18,1.45-6.18,9.89-354.81,9.89
		C795.88,723.28,644.25,681.12,659.12,682.49z M1117.76,515.62c100.83-11.61,102.27-20.01,105.19-20.59
		c-0.4-13.14-14.47-352.23-14.47-352.23s40.1-7.44,58.81-11.61c17.2-3.84,62.92-14.47,62.92-14.47s13.38,272.44,18.96,353.91
		c125.81,25.21,467.28,49.73,467.28,49.73c1.02,0.12-16.9,9.68-17.89,10.04c-16.25,5.98-47.71,17.25-60.24,20.68
		c-39.63,10.86-49.16,14.04-65.65,17.48c-31.23,6.52-33.6,6.96-62.82,13.07c-32.24,6.74-105.88,20.51-153.13,24.78
		c-2.35,0.22-171.62-67.48-184.44-72.1c-11.04-3.97-32.67-8.83-32.67-8.83s-50.87,6.63-72.31,9.28
		c-45.35,5.6-91.09,6.29-136.74,7.36c-39.91,0.93-121.95-2.17-121.95-2.17S918.57,538.57,1117.76,515.62z M938.26,1108.03
		c0.59-2.68,3.11-4.45,5.83-4.12c10.74,1.3,47.48,9.32,47.48,9.32c3.58,0.63,7.22-0.61,9.47-3.45
		c7.14-8.98,92.11-78.63,117.76-99.59c4.68-3.84,10.07-6.66,15.87-8.39c21.66-6.47,63.18-24.32,97.28-39.91
		c36.19-16.54,77.53-38.27,91.51-45.71c1.77-0.94,3.78,0.75,3.15,2.66c-30.52,91.41-131.29,308.13-155.29,357.44
		c-3.44,7.07-7.59,13.77-12.43,19.97c-15.95,20.4-49.92,67.23-97.65,79.5c-25.56,6.58-58.21,12.67-83.2,4.05
		c-11.7-4.03-23.34-11.53-27.68-24.55c-4.89-14.63,2.76-30.8,13.07-34.98c37.29-15.09,104.69-40.18,117.65-55.9
		c2.16-2.62-0.7-6.65-3.59-7.9c-9.68-4.18-60.32-4.93-85.63-3.03c-15.44,1.16-43.1,6.48-48.23-11.9
		c-5.54-19.84,1.47-30.76,16.94-33.82c26.67-5.27,62.58-12.22,97.39-24.66c54.06-19.33,96.68-43.16,114.1-48.23
		c10.07,0.98,10.97,7.17,14.93,8.39c0.57,0.18,10.62-11.51,11.3-15.38c1.57-9.08-4.97-24.62-7.66-34.09
		c-2.06-7.3-7.62-20.29-15.48-20.38c-3.67-0.04-18.62,1.99-27.35,4.46c-4.29,1.2-7.7,6.93-5.27,10.67c0.55,0.85,2.36,4.3,4.63,8.26
		c1.79,3.14,1.28,7.67-1.84,9.46c-19.48,11.12-18.85,12.13-72.59,33.19c-58.51,22.93-102.95,25.88-131.44,26.48
		c-4.16,0.08-7.62-3.18-7.71-7.34C933.22,1142.54,936.16,1117.56,938.26,1108.03z"/>
</g>
</svg>
